<svg xmlns="http://www.w3.org/2000/svg" width="920" height="130" viewBox="0 0 920 130" fill="none">
<path d="M0 111.876L13.4178 102.921L26.8357 111.876L0 129.798V111.876ZM128.814 18.7151L115.396 27.6701L101.978 18.7151L128.814 0.787674V18.7151ZM128.814 86.7906L64.4068 129.798L0 86.7906L76.4863 35.7296L89.9042 44.6904L28.1798 85.9008L65.7509 110.986L83.1895 99.3392L69.7716 90.3783L101.978 68.869L128.814 86.7906ZM0 43.8007L64.4126 0.805006L128.819 43.8007L52.3331 94.8616L38.9152 85.9008L100.64 44.6904L63.0685 19.6106L45.6241 31.2579L59.042 40.2129L26.8357 61.7223L0 43.8007ZM154.571 80.2274V108.271H189.69C198.106 108.271 219.023 107.318 219.023 85.5195C219.023 83.6708 218.931 81.8913 218.718 80.2216L196.912 80.2274C197.022 81.0709 197.068 81.9722 197.068 82.9081C197.068 94.931 187.123 95.0581 182.704 95.0581H176.186V80.2447H154.571V80.2274ZM228.08 80.2274L219.502 108.265H237.166L241.579 92.6778H260.535L264.838 108.265H283.575L275.164 80.2274H257.333L257.731 81.8451H244.163L244.527 80.2274H228.08ZM287.711 80.2274V108.265H302.871V80.2274H287.711ZM310.751 80.2274L322.432 108.265H343.505V80.2274H328.322V83.3934L327.001 80.2274H310.751ZM350.739 80.2274C350.935 97.8139 353.167 110.334 377.419 110.334C392.936 110.334 402.01 104.175 402.01 84.9764H384.353C384.133 90.6383 384.041 99.5876 377.419 99.5876C370.79 99.5876 369.158 96.0518 368.87 80.2101L350.739 80.2274ZM407.306 80.2274C407.681 96.3233 410.669 110.334 434.597 110.334C458.526 110.334 461.52 96.3233 461.889 80.239L443.562 80.2274C443.216 93.6657 441.502 99.5991 434.592 99.5991C427.687 99.5991 425.962 93.6773 425.627 80.2216L407.306 80.2274ZM481.375 80.2274V108.265H508.078C530.605 108.265 533.824 92.1751 534.199 80.239L516.074 80.2274C515.554 92.6258 513.264 97.525 505.955 97.525H499.16V80.2274H481.375ZM540.913 80.2274C541.271 96.2944 544.207 110.334 568.228 110.334C592.237 110.334 595.167 96.2944 595.536 80.2159L577.192 80.2274C576.852 93.7004 575.15 99.6338 568.222 99.6338C561.282 99.6338 559.569 93.7004 559.24 80.2274H540.913ZM614.077 80.2274V108.271H649.208C657.624 108.271 678.536 107.318 678.536 85.5195C678.536 83.665 678.438 81.8913 678.241 80.2216L656.73 80.2159C656.828 81.1056 656.874 82.0357 656.874 83.0179C656.874 95.0407 648.764 95.1736 645.17 95.1736H635.715V80.2159L614.077 80.2274ZM684.443 80.2274V108.26H702.77V80.2274H684.443ZM710.263 80.2274L722.435 108.26H751.728L756.153 92.6662H775.103L779.4 108.26L821.973 108.265C833.729 108.265 845.647 106.7 845.647 88.4718C845.699 85.6106 845.028 82.7827 843.697 80.2505L817.173 80.2274C822.619 82.8041 826.841 85.4329 826.841 89.5984C826.841 94.3706 824.286 97.6002 819.06 97.6002L794.918 97.5944L789.72 80.2274H771.884L772.293 81.8855H758.714L759.083 80.2274H742.498L735.795 101.933L725.994 80.2274H710.263ZM852.281 80.2274V108.265H870.164V80.2274H852.281ZM880.64 80.2274V108.265H919.388V97.6175H898.523V80.2216L880.64 80.2274Z" fill="#465EFF"/>
<path d="M176.197 80.2274V70.7697L180.512 70.6426H183.27C192.476 70.6426 196.157 74.2073 196.924 80.2274H218.729C217.616 71.3013 213.134 65.235 201.273 63.7386C212.061 61.5952 217.455 54.4543 217.455 44.5748C217.455 26.2373 204.96 22.3086 189.834 22.3086H154.576V80.239H176.197V80.2274ZM244.527 80.2274L250.618 53.0619L257.327 80.2274H275.158L262.461 37.9019H241.037L228.08 80.2274H244.527ZM302.876 80.2274V61.3352L310.751 80.2332H327.001L309.303 37.9077H287.711V80.2332H302.876V80.2274ZM343.505 80.2274V37.9019H328.322V80.2274H343.505ZM368.87 80.2274C368.833 77.9012 368.816 75.5747 368.818 73.2483C368.818 50.7047 370.537 46.9032 377.084 46.9032C381.797 46.9032 383.914 50.4794 383.914 60.0237H401.462C402.12 44.6153 393.577 36.1571 376.657 36.1571C351.46 36.1571 350.727 52.1895 350.727 73.2367C350.727 75.6286 350.721 77.9569 350.739 80.1985L368.87 80.2274ZM425.633 80.2274C425.575 78.0955 425.558 75.773 425.558 73.2483C425.558 54.8587 426.596 46.9032 434.597 46.9032C442.604 46.9032 443.637 54.8529 443.637 73.2483C443.637 75.773 443.62 78.0955 443.562 80.2159L461.889 80.2274C461.941 77.9395 461.941 75.5939 461.941 73.2483C461.941 54.2636 461.941 36.1687 434.597 36.1687C407.254 36.1687 407.254 54.2636 407.254 73.2483C407.254 75.5939 407.254 77.9395 407.306 80.239L425.633 80.2274ZM499.177 80.2274V48.6479H506.446C516.206 48.6479 516.206 60.0815 516.206 73.0923C516.206 75.6979 516.16 78.0666 516.085 80.2101L534.204 80.2216C534.308 77.3329 534.239 74.6868 534.239 72.5723C534.239 50.5718 530.218 37.6708 508.73 37.6708H481.375V80.2216L499.177 80.2274ZM559.263 80.2274C559.21 77.9534 559.185 75.6789 559.188 73.4043C559.188 55.0956 560.233 47.1747 568.228 47.1747C576.235 47.1747 577.262 55.0956 577.262 73.4043C577.262 75.8654 577.25 78.1302 577.192 80.2274H595.537C595.583 77.9742 595.583 75.7037 595.583 73.4043C595.583 54.5063 595.583 36.4807 568.228 36.4807C540.861 36.4807 540.861 54.5005 540.861 73.4043C540.861 75.6921 540.861 77.9742 540.913 80.2159L559.263 80.2274ZM635.732 80.2274V70.9084L641.178 70.7755H645.626C653.073 70.7755 656.078 74.2998 656.736 80.2563L678.247 80.2447C677.134 71.3244 672.629 65.2581 660.786 63.7559C671.567 61.6125 676.967 54.4658 676.967 44.5864C676.967 26.2546 664.472 22.3202 649.341 22.3202H614.088V80.2274H635.732ZM702.77 80.2274V48.7115H708.844C714.013 48.7115 718.501 52.4784 718.501 59.4055C718.501 65.2696 715.57 70.088 710.863 69.7818L705.758 69.8569L710.263 80.2447H726.006L723.381 74.4095C732.495 72.711 736.112 66.9277 736.147 56.3146C736.176 44.3322 729.046 37.8961 717.958 37.8961H684.443V80.239H702.77V80.2274ZM759.089 80.2274L765.192 53.1023L771.884 80.2274H789.72L777.041 37.8904H755.605L742.504 80.2274H759.089ZM843.68 80.2274C836.977 67.7077 815.195 67.465 815.195 56.1759C815.195 51.2998 818.165 48.6711 823.178 48.6711H839.463V37.8384H816.562C797.744 37.8384 793.101 46.3485 793.101 57.3545C793.101 70.9084 807.188 75.4899 817.173 80.2159L843.68 80.2274ZM870.147 80.2274V37.9019H852.264V80.2274H870.147ZM898.505 80.2274V37.9019H880.622V80.2274H898.505ZM176.197 57.4932V35.5158H183.956C191.005 35.5158 195.978 40.1609 195.978 46.4698C195.978 54.8067 189.621 57.4239 185.064 57.4239H177.789L176.197 57.4932ZM635.732 57.6261V35.6487H646.191C651.919 35.6487 655.975 40.2995 655.975 46.6027C655.975 54.9338 650.8 57.5567 647.085 57.5567H641.166L635.732 57.6261Z" fill="#465EFF"/>
</svg>