<svg xmlns="http://www.w3.org/2000/svg" width="633" height="601" viewBox="0 0 633 601" fill="none">
<path fill-rule="evenodd" clip-rule="evenodd" d="M264.925 423.331L210.544 386.885L469.119 212.713L309.483 105.477L234.402 155.941L292.642 194.49L158.267 284.204L45.6451 209.91L316.851 29.4306L585.952 209.209L264.925 423.331ZM367.022 176.267L421.404 212.713L162.828 386.885L322.815 494.121L397.897 443.657L339.656 405.458L474.382 315.744L587.004 390.039L315.097 570.168L46.6976 391.09L367.022 176.267ZM156.162 498.677L100.728 460.829L44.5925 498.677L45.2942 571.569L156.162 498.677ZM478.241 103.725L534.026 141.573L588.408 105.477V30.8324L478.241 103.725Z" fill="#465EFF"/>
</svg>