<svg xmlns="http://www.w3.org/2000/svg" width="369" height="66" viewBox="0 0 369 66" fill="none">
<g clip-path="url(#clip0_46_264)">
<path fill-rule="evenodd" clip-rule="evenodd" d="M21.69 31.58V21.71H5.32C2.39 21.71 0 24.1 0 27.05V43.4H21.69V65.07H38.04C40.96 65.07 43.36 62.68 43.36 59.75V43.4H33.52C27.01 43.4 21.69 38.08 21.69 31.57" fill="#009FCB"/>
<path fill-rule="evenodd" clip-rule="evenodd" d="M43.3599 21.71V0.0400085H27.0099C24.0799 0.0400085 21.6899 2.43001 21.6899 5.36001V21.71H31.5299C38.0399 21.71 43.3599 27.03 43.3599 33.54V43.41H59.7399C62.6599 43.41 65.0599 41.02 65.0599 38.09V21.71H43.3699H43.3599Z" fill="#005FB9"/>
<path d="M79.87 53.53L83.04 46.19C85.59 47.81 90.7 49.92 94.62 49.92C97.55 49.92 100.28 48.99 100.28 45.07C100.28 41.77 97.11 40.71 93.12 39.47C87.71 37.85 81.17 35.43 81.17 27.27C81.17 19.11 87.27 14.76 95.61 14.76C101.46 14.76 106.87 17.25 110.3 20.74L105.63 26.65C102.33 24.1 98.85 22.29 95.67 22.29C93.18 22.29 90.5 23.35 90.5 26.52C90.5 29.88 93.74 31 98.09 32.37C103.75 34.18 109.79 36.54 109.79 44.76C109.79 52.98 103.63 57.64 94.54 57.64C88.38 57.64 82.15 55.15 79.85 53.53" fill="#005FB9"/>
<path d="M113.98 42.52C113.98 31.57 119.58 24.41 130.47 24.41C132.59 24.41 137.25 24.97 141.92 26.71V50.61L142.54 56.9H135.13L134.63 53.73L134.38 53.67C132.7 56.16 130.02 57.9 126.17 57.9C116.71 57.9 113.97 50.62 113.97 42.53M133.33 46.94V31.32C132.46 30.95 131.03 30.64 129.41 30.64C124.31 30.64 122.56 35.93 122.56 42.03C122.56 47.01 123.68 51.55 128.16 51.55C131.46 51.55 133.33 49.25 133.33 46.94Z" fill="#005FB9"/>
<path d="M149.08 46.62V25.33H157.79V45.25C157.79 48.67 158.35 51.1 161.84 51.1C164.64 51.1 166.94 48.49 166.94 45.87V25.33H175.65V51.28L176.21 56.88H168.87L168.37 53.46H168.12C166.07 56.39 162.95 57.69 159.47 57.69C152.56 57.69 149.08 54.02 149.08 46.61M164.51 7.23001C166.5 7.79001 169.55 8.97001 169.55 11.4C169.55 12.4 168.93 13.39 167.68 14.7C165.56 16.88 162.02 19.74 159.59 21.8L157.04 19.62L164.51 7.23001Z" fill="#005FB9"/>
<path d="M181.5 42.52C181.5 31.81 186.85 24.41 196.81 24.41C198.55 24.41 199.8 24.66 200.92 25.03V13.64H209.51V50.49L210.13 56.9H202.79L202.23 53.66H201.92C200.3 56.21 197.31 57.89 193.83 57.89C183.87 57.89 181.51 49.99 181.51 42.52M200.92 47.12V31.44C200.05 31 198.74 30.63 197.19 30.63C191.78 30.63 190.16 36.05 190.16 41.71C190.16 47 191.34 51.54 195.7 51.54C198.87 51.54 200.93 49.18 200.93 47.12H200.92Z" fill="#005FB9"/>
<path d="M215.36 41.89C215.36 32.74 220.71 24.4 230.92 24.4C237.21 24.4 241.25 27.57 241.25 33.55C241.25 42.89 230.92 44.5 224.2 44.75C224.57 48.11 226.63 51.29 231.3 51.29C234.66 51.29 237.4 49.8 239.08 48.61L241.57 54.34C240.88 54.96 236.53 57.82 230.18 57.82C219.66 57.82 215.37 51.22 215.37 41.89M233.6 33.74C233.6 31.75 232.36 30.57 230.43 30.57C226.26 30.57 224.08 34.43 223.89 38.91C227.25 38.85 233.6 37.79 233.6 33.74Z" fill="#005FB9"/>
<path d="M245.42 36.48C245.42 20.17 255.25 14.76 264.28 14.76C269.94 14.76 275.36 17 279.03 22.85L272.74 27.33C270.19 24.03 267.45 22.23 264.03 22.23C258.37 22.23 254.57 27.02 254.57 35.92C254.57 44.82 257.68 50.3 264.59 50.3C267.95 50.3 271 48.68 273.86 46.07L278.47 51.86C274.18 55.84 269.69 57.65 264.16 57.65C252.71 57.65 245.43 50.49 245.43 36.49" fill="#009FCB"/>
<path d="M280.65 42.52C280.65 31.57 286.25 24.41 297.14 24.41C299.26 24.41 303.92 24.97 308.59 26.71V50.61L309.21 56.9H301.8L301.3 53.73L301.05 53.67C299.37 56.16 296.69 57.9 292.83 57.9C283.37 57.9 280.63 50.62 280.63 42.53M300 46.94V31.32C299.13 30.95 297.7 30.64 296.08 30.64C290.98 30.64 289.23 35.93 289.23 42.03C289.23 47.01 290.35 51.55 294.83 51.55C298.13 51.55 300 49.25 300 46.94Z" fill="#009FCB"/>
<path d="M313.2 54.53L315.57 48.37C317.75 49.74 321.61 51.48 324.78 51.48C326.9 51.48 328.64 50.42 328.64 48.18C328.64 45.75 326.52 45.01 323.91 44.2C319.3 42.83 314.14 41.27 314.14 34.74C314.14 28.21 319.68 24.41 325.97 24.41C330.76 24.41 334.99 26.28 337.8 28.95L333.76 33.99C331.21 31.94 328.66 30.69 326.35 30.69C324.3 30.69 322.62 31.75 322.62 33.86C322.62 36.16 324.74 37.03 327.6 37.97C332.14 39.46 337.25 41.14 337.25 47.56C337.25 53.98 332.33 57.83 325.11 57.83C319.57 57.83 314.96 55.84 313.22 54.53" fill="#009FCB"/>
<path d="M350.98 13.64V27.46C352.91 25.47 355.77 24.41 358.76 24.41C365.36 24.41 368.84 28.08 368.84 35.49V56.9H360.13V36.8C360.13 33.5 359.51 31.14 356.21 31.14C353.16 31.14 350.98 33.63 350.98 36.56V56.91H342.27V13.64H350.98Z" fill="#009FCB"/>
</g>
<defs>
<clipPath id="clip0_46_264">
<rect width="368.84" height="65.04" fill="white" transform="translate(0 0.0400085)"/>
</clipPath>
</defs>
</svg>