<svg xmlns="http://www.w3.org/2000/svg" width="369" height="66" viewBox="0 0 369 66" fill="none">
<g clip-path="url(#clip0_46_263)">
<path fill-rule="evenodd" clip-rule="evenodd" d="M21.69 31.54V21.67H5.32C2.39 21.67 0 24.06 0 27.01V43.36H21.69V65.03H38.04C40.96 65.03 43.36 62.64 43.36 59.71V43.36H33.52C27.01 43.36 21.69 38.04 21.69 31.53" fill="#009FCB"/>
<path fill-rule="evenodd" clip-rule="evenodd" d="M43.3599 21.67V0H27.0099C24.0799 0 21.6899 2.39 21.6899 5.32V21.67H31.5299C38.0399 21.67 43.3599 26.99 43.3599 33.5V43.37H59.7399C62.6599 43.37 65.0599 40.98 65.0599 38.05V21.67H43.3699H43.3599Z" fill="white"/>
<path d="M79.87 53.49L83.04 46.15C85.59 47.77 90.7 49.88 94.62 49.88C97.55 49.88 100.28 48.95 100.28 45.03C100.28 41.73 97.11 40.67 93.12 39.43C87.71 37.81 81.17 35.39 81.17 27.23C81.17 19.07 87.27 14.72 95.61 14.72C101.46 14.72 106.87 17.21 110.3 20.7L105.63 26.61C102.33 24.06 98.85 22.25 95.67 22.25C93.18 22.25 90.5 23.31 90.5 26.48C90.5 29.84 93.74 30.96 98.09 32.33C103.75 34.14 109.79 36.5 109.79 44.72C109.79 52.94 103.63 57.6 94.54 57.6C88.38 57.6 82.15 55.11 79.85 53.49" fill="white"/>
<path d="M113.98 42.48C113.98 31.53 119.58 24.37 130.47 24.37C132.59 24.37 137.25 24.93 141.92 26.67V50.57L142.54 56.86H135.13L134.63 53.69L134.38 53.63C132.7 56.12 130.02 57.86 126.17 57.86C116.71 57.86 113.97 50.58 113.97 42.49M133.33 46.9V31.28C132.46 30.91 131.03 30.6 129.41 30.6C124.31 30.6 122.56 35.89 122.56 41.99C122.56 46.97 123.68 51.51 128.16 51.51C131.46 51.51 133.33 49.21 133.33 46.9Z" fill="white"/>
<path d="M149.08 46.58V25.29H157.79V45.21C157.79 48.63 158.35 51.06 161.84 51.06C164.64 51.06 166.94 48.45 166.94 45.83V25.29H175.65V51.24L176.21 56.84H168.87L168.37 53.42H168.12C166.07 56.35 162.95 57.65 159.47 57.65C152.56 57.65 149.08 53.98 149.08 46.57M164.51 7.19C166.5 7.75 169.55 8.93 169.55 11.36C169.55 12.36 168.93 13.35 167.68 14.66C165.56 16.84 162.02 19.7 159.59 21.76L157.04 19.58L164.51 7.19Z" fill="white"/>
<path d="M181.5 42.48C181.5 31.77 186.85 24.37 196.81 24.37C198.55 24.37 199.8 24.62 200.92 24.99V13.6H209.51V50.45L210.13 56.86H202.79L202.23 53.62H201.92C200.3 56.17 197.31 57.85 193.83 57.85C183.87 57.85 181.51 49.95 181.51 42.48M200.92 47.08V31.4C200.05 30.96 198.74 30.59 197.19 30.59C191.78 30.59 190.16 36.01 190.16 41.67C190.16 46.96 191.34 51.5 195.7 51.5C198.87 51.5 200.93 49.14 200.93 47.08H200.92Z" fill="white"/>
<path d="M215.36 41.85C215.36 32.7 220.71 24.36 230.92 24.36C237.21 24.36 241.25 27.53 241.25 33.51C241.25 42.85 230.92 44.46 224.2 44.71C224.57 48.07 226.63 51.25 231.3 51.25C234.66 51.25 237.4 49.76 239.08 48.57L241.57 54.3C240.88 54.92 236.53 57.78 230.18 57.78C219.66 57.78 215.37 51.18 215.37 41.85M233.6 33.7C233.6 31.71 232.36 30.53 230.43 30.53C226.26 30.53 224.08 34.39 223.89 38.87C227.25 38.81 233.6 37.75 233.6 33.7Z" fill="white"/>
<path d="M245.42 36.44C245.42 20.13 255.25 14.72 264.28 14.72C269.94 14.72 275.36 16.96 279.03 22.81L272.74 27.29C270.19 23.99 267.45 22.19 264.03 22.19C258.37 22.19 254.57 26.98 254.57 35.88C254.57 44.78 257.68 50.26 264.59 50.26C267.95 50.26 271 48.64 273.86 46.03L278.47 51.82C274.18 55.8 269.69 57.61 264.16 57.61C252.71 57.61 245.43 50.45 245.43 36.45" fill="#009FCB"/>
<path d="M280.65 42.48C280.65 31.53 286.25 24.37 297.14 24.37C299.26 24.37 303.92 24.93 308.59 26.67V50.57L309.21 56.86H301.8L301.3 53.69L301.05 53.63C299.37 56.12 296.69 57.86 292.83 57.86C283.37 57.86 280.63 50.58 280.63 42.49M300 46.9V31.28C299.13 30.91 297.7 30.6 296.08 30.6C290.98 30.6 289.23 35.89 289.23 41.99C289.23 46.97 290.35 51.51 294.83 51.51C298.13 51.51 300 49.21 300 46.9Z" fill="#009FCB"/>
<path d="M313.2 54.49L315.57 48.33C317.75 49.7 321.61 51.44 324.78 51.44C326.9 51.44 328.64 50.38 328.64 48.14C328.64 45.71 326.52 44.97 323.91 44.16C319.3 42.79 314.14 41.23 314.14 34.7C314.14 28.17 319.68 24.37 325.97 24.37C330.76 24.37 334.99 26.24 337.8 28.91L333.76 33.95C331.21 31.9 328.66 30.65 326.35 30.65C324.3 30.65 322.62 31.71 322.62 33.82C322.62 36.12 324.74 36.99 327.6 37.93C332.14 39.42 337.25 41.1 337.25 47.52C337.25 53.94 332.33 57.79 325.11 57.79C319.57 57.79 314.96 55.8 313.22 54.49" fill="#009FCB"/>
<path d="M350.98 13.6V27.42C352.91 25.43 355.77 24.37 358.76 24.37C365.36 24.37 368.84 28.04 368.84 35.45V56.86H360.13V36.76C360.13 33.46 359.51 31.1 356.21 31.1C353.16 31.1 350.98 33.59 350.98 36.52V56.87H342.27V13.6H350.98Z" fill="#009FCB"/>
</g>
<defs>
<clipPath id="clip0_46_263">
<rect width="368.84" height="65.04" fill="white"/>
</clipPath>
</defs>
</svg>